<svg width="226" height="42" viewBox="0 0 226 42" fill="none" xmlns="http://www.w3.org/2000/svg">
<path opacity="0.5" d="M40.0652 2.25671L30.2601 36.9917C30.2102 37.1494 30.0108 37.1967 29.8945 37.0863L23.3301 30.8583L28.2492 13.4514C28.2991 13.2937 28.1495 13.1518 27.9833 13.1991L9.63617 17.8662L3.10498 11.6697C2.98865 11.5593 3.03851 11.3701 3.20469 11.3228L39.7993 2.00444C39.9655 1.97291 40.115 2.11481 40.0652 2.25671Z" fill="#00B37E"/>
<path opacity="0.5" d="M23.3297 30.858L20.8037 39.8452C20.7538 40.0029 20.5544 40.0502 20.4381 39.9398L0.0634003 20.6251C-0.0529313 20.5147 -0.00307518 20.3255 0.163113 20.2782L9.63583 17.8658L23.3297 30.858Z" fill="#00B37E"/>
<path d="M28.2484 13.4511L23.3292 30.858L9.63533 17.8659L27.9825 13.1988C28.1487 13.1515 28.2982 13.2934 28.2484 13.4511Z" fill="#00B37E"/>
<path d="M59.4014 11.3104H62.5745L67.2469 24.6653L71.9192 11.3104H75.0924L68.5211 29.5H65.9726L59.4014 11.3104ZM57.6898 11.3104H60.8505L61.4252 24.328V29.5H57.6898V11.3104ZM73.6432 11.3104H76.8164V29.5H73.0685V24.328L73.6432 11.3104ZM79.3024 22.8788V22.6164C79.3024 21.6253 79.444 20.7134 79.7272 19.8805C80.0104 19.0393 80.4226 18.3106 80.964 17.6943C81.5053 17.078 82.1716 16.5991 82.9628 16.2576C83.7541 15.9078 84.6619 15.7329 85.6863 15.7329C86.7107 15.7329 87.6227 15.9078 88.4222 16.2576C89.2217 16.5991 89.8922 17.078 90.4336 17.6943C90.9832 18.3106 91.3997 19.0393 91.6828 19.8805C91.966 20.7134 92.1076 21.6253 92.1076 22.6164V22.8788C92.1076 23.8616 91.966 24.7735 91.6828 25.6147C91.3997 26.4476 90.9832 27.1763 90.4336 27.801C89.8922 28.4173 89.2259 28.8962 88.4347 29.2377C87.6435 29.5791 86.7357 29.7499 85.7113 29.7499C84.6868 29.7499 83.7749 29.5791 82.9753 29.2377C82.1841 28.8962 81.5137 28.4173 80.964 27.801C80.4226 27.1763 80.0104 26.4476 79.7272 25.6147C79.444 24.7735 79.3024 23.8616 79.3024 22.8788ZM82.9004 22.6164V22.8788C82.9004 23.4451 82.9503 23.974 83.0503 24.4654C83.1502 24.9568 83.3085 25.3899 83.525 25.7646C83.7499 26.1311 84.0414 26.4184 84.3995 26.6266C84.7576 26.8349 85.1949 26.939 85.7113 26.939C86.211 26.939 86.6399 26.8349 86.998 26.6266C87.3562 26.4184 87.6435 26.1311 87.86 25.7646C88.0766 25.3899 88.2348 24.9568 88.3348 24.4654C88.443 23.974 88.4972 23.4451 88.4972 22.8788V22.6164C88.4972 22.0668 88.443 21.5504 88.3348 21.0673C88.2348 20.576 88.0724 20.1429 87.8475 19.7681C87.631 19.385 87.3437 19.0851 86.9855 18.8686C86.6274 18.6521 86.1943 18.5438 85.6863 18.5438C85.1782 18.5438 84.7451 18.6521 84.387 18.8686C84.0372 19.0851 83.7499 19.385 83.525 19.7681C83.3085 20.1429 83.1502 20.576 83.0503 21.0673C82.9503 21.5504 82.9004 22.0668 82.9004 22.6164ZM97.8418 18.8686V29.5H94.2439V15.9828H97.6169L97.8418 18.8686ZM97.3171 22.2666H96.3427C96.3427 21.2672 96.4718 20.3677 96.7299 19.5682C96.9881 18.7603 97.3504 18.0732 97.8168 17.5069C98.2832 16.9322 98.8371 16.495 99.4784 16.1951C100.128 15.887 100.853 15.7329 101.652 15.7329C102.285 15.7329 102.864 15.8245 103.389 16.0077C103.913 16.191 104.363 16.4825 104.738 16.8822C105.121 17.282 105.412 17.8109 105.612 18.4688C105.821 19.1268 105.925 19.9305 105.925 20.8799V29.5H102.302V20.8675C102.302 20.2678 102.218 19.8014 102.052 19.4683C101.885 19.1351 101.64 18.9019 101.315 18.7687C100.998 18.6271 100.607 18.5563 100.14 18.5563C99.6574 18.5563 99.2368 18.6521 98.8787 18.8436C98.5289 19.0352 98.2374 19.3017 98.0042 19.6432C97.7793 19.9763 97.6086 20.3677 97.492 20.8175C97.3754 21.2672 97.3171 21.7503 97.3171 22.2666ZM114.882 29.7499C113.833 29.7499 112.892 29.5833 112.059 29.2501C111.226 28.9087 110.518 28.4381 109.935 27.8385C109.36 27.2388 108.919 26.5434 108.611 25.7521C108.302 24.9526 108.148 24.1031 108.148 23.2036V22.7039C108.148 21.6795 108.294 20.7425 108.586 19.893C108.877 19.0435 109.294 18.3064 109.835 17.6818C110.385 17.0571 111.051 16.5782 111.834 16.2451C112.617 15.9036 113.499 15.7329 114.482 15.7329C115.44 15.7329 116.29 15.8911 117.031 16.2076C117.772 16.5241 118.393 16.9739 118.892 17.5569C119.4 18.1398 119.783 18.8394 120.042 19.6556C120.3 20.4635 120.429 21.363 120.429 22.3541V23.8532H109.685V21.4546H116.893V21.1798C116.893 20.6801 116.802 20.2345 116.619 19.843C116.444 19.4433 116.177 19.1268 115.819 18.8936C115.461 18.6604 115.003 18.5438 114.445 18.5438C113.97 18.5438 113.562 18.6479 113.22 18.8561C112.879 19.0643 112.6 19.3558 112.383 19.7306C112.175 20.1054 112.017 20.5468 111.909 21.0548C111.809 21.5546 111.759 22.1042 111.759 22.7039V23.2036C111.759 23.745 111.834 24.2447 111.984 24.7028C112.142 25.1608 112.363 25.5564 112.646 25.8896C112.937 26.2227 113.287 26.4809 113.695 26.6641C114.112 26.8474 114.582 26.939 115.107 26.939C115.757 26.939 116.36 26.814 116.918 26.5642C117.485 26.306 117.972 25.9187 118.38 25.4024L120.129 27.3013C119.846 27.7094 119.459 28.1008 118.967 28.4756C118.484 28.8504 117.901 29.1585 117.218 29.4001C116.535 29.6333 115.757 29.7499 114.882 29.7499ZM126.313 27.9759L129.898 15.9828H133.759L128.324 31.5363C128.208 31.8778 128.049 32.2443 127.85 32.6357C127.658 33.0271 127.396 33.3978 127.063 33.7476C126.738 34.1057 126.325 34.3972 125.826 34.6221C125.334 34.8469 124.731 34.9594 124.014 34.9594C123.673 34.9594 123.394 34.9385 123.177 34.8969C122.961 34.8553 122.703 34.797 122.403 34.722V32.086C122.494 32.086 122.59 32.086 122.69 32.086C122.79 32.0943 122.886 32.0985 122.977 32.0985C123.452 32.0985 123.839 32.0444 124.139 31.9361C124.439 31.8278 124.681 31.6613 124.864 31.4364C125.047 31.2198 125.193 30.9367 125.301 30.5869L126.313 27.9759ZM124.814 15.9828L127.75 25.7771L128.262 29.5874L125.813 29.8498L120.954 15.9828H124.814ZM152.336 23.466H156.071C155.996 24.6903 155.659 25.7771 155.059 26.7266C154.468 27.676 153.639 28.4173 152.573 28.9503C151.515 29.4833 150.241 29.7499 148.75 29.7499C147.584 29.7499 146.539 29.55 145.614 29.1502C144.69 28.7421 143.899 28.1591 143.241 27.4012C142.591 26.6433 142.096 25.7272 141.754 24.6528C141.413 23.5784 141.242 22.3749 141.242 21.0424V19.7806C141.242 18.448 141.417 17.2445 141.767 16.1701C142.125 15.0874 142.633 14.1671 143.291 13.4092C143.957 12.6513 144.752 12.0683 145.677 11.6602C146.601 11.2521 147.634 11.0481 148.775 11.0481C150.291 11.0481 151.569 11.3229 152.61 11.8726C153.66 12.4223 154.472 13.1802 155.046 14.1463C155.629 15.1124 155.979 16.2118 156.096 17.4444H152.348C152.306 16.7115 152.161 16.091 151.911 15.583C151.661 15.0666 151.282 14.6793 150.774 14.4211C150.274 14.1546 149.608 14.0214 148.775 14.0214C148.15 14.0214 147.605 14.138 147.139 14.3712C146.672 14.6044 146.281 14.9583 145.964 15.4331C145.648 15.9078 145.41 16.5075 145.252 17.232C145.102 17.9483 145.027 18.7895 145.027 19.7556V21.0424C145.027 21.9835 145.098 22.8122 145.24 23.5284C145.381 24.2364 145.598 24.836 145.889 25.3274C146.189 25.8104 146.572 26.1769 147.039 26.4268C147.513 26.6683 148.084 26.7891 148.75 26.7891C149.533 26.7891 150.178 26.6641 150.686 26.4143C151.195 26.1644 151.582 25.7938 151.848 25.3024C152.123 24.811 152.286 24.1989 152.336 23.466ZM157.732 22.8788V22.6164C157.732 21.6253 157.874 20.7134 158.157 19.8805C158.44 19.0393 158.853 18.3106 159.394 17.6943C159.935 17.078 160.602 16.5991 161.393 16.2576C162.184 15.9078 163.092 15.7329 164.116 15.7329C165.141 15.7329 166.053 15.9078 166.852 16.2576C167.652 16.5991 168.322 17.078 168.864 17.6943C169.413 18.3106 169.83 19.0393 170.113 19.8805C170.396 20.7134 170.538 21.6253 170.538 22.6164V22.8788C170.538 23.8616 170.396 24.7735 170.113 25.6147C169.83 26.4476 169.413 27.1763 168.864 27.801C168.322 28.4173 167.656 28.8962 166.865 29.2377C166.074 29.5791 165.166 29.7499 164.141 29.7499C163.117 29.7499 162.205 29.5791 161.405 29.2377C160.614 28.8962 159.944 28.4173 159.394 27.801C158.853 27.1763 158.44 26.4476 158.157 25.6147C157.874 24.7735 157.732 23.8616 157.732 22.8788ZM161.33 22.6164V22.8788C161.33 23.4451 161.38 23.974 161.48 24.4654C161.58 24.9568 161.738 25.3899 161.955 25.7646C162.18 26.1311 162.471 26.4184 162.83 26.6266C163.188 26.8349 163.625 26.939 164.141 26.939C164.641 26.939 165.07 26.8349 165.428 26.6266C165.786 26.4184 166.074 26.1311 166.29 25.7646C166.507 25.3899 166.665 24.9568 166.765 24.4654C166.873 23.974 166.927 23.4451 166.927 22.8788V22.6164C166.927 22.0668 166.873 21.5504 166.765 21.0673C166.665 20.576 166.502 20.1429 166.278 19.7681C166.061 19.385 165.774 19.0851 165.416 18.8686C165.057 18.6521 164.624 18.5438 164.116 18.5438C163.608 18.5438 163.175 18.6521 162.817 18.8686C162.467 19.0851 162.18 19.385 161.955 19.7681C161.738 20.1429 161.58 20.576 161.48 21.0673C161.38 21.5504 161.33 22.0668 161.33 22.6164ZM176.272 18.8686V29.5H172.674V15.9828H176.047L176.272 18.8686ZM175.747 22.2666H174.773C174.773 21.2672 174.902 20.3677 175.16 19.5682C175.418 18.7603 175.78 18.0732 176.247 17.5069C176.713 16.9322 177.267 16.495 177.908 16.1951C178.558 15.887 179.283 15.7329 180.082 15.7329C180.715 15.7329 181.294 15.8245 181.819 16.0077C182.343 16.191 182.793 16.4825 183.168 16.8822C183.551 17.282 183.842 17.8109 184.042 18.4688C184.251 19.1268 184.355 19.9305 184.355 20.8799V29.5H180.732V20.8675C180.732 20.2678 180.648 19.8014 180.482 19.4683C180.315 19.1351 180.07 18.9019 179.745 18.7687C179.428 18.6271 179.037 18.5563 178.57 18.5563C178.087 18.5563 177.667 18.6521 177.309 18.8436C176.959 19.0352 176.667 19.3017 176.434 19.6432C176.209 19.9763 176.039 20.3677 175.922 20.8175C175.805 21.2672 175.747 21.7503 175.747 22.2666ZM193.712 15.9828V18.5313H185.841V15.9828H193.712ZM187.79 12.6472H191.388V25.4273C191.388 25.8188 191.438 26.1186 191.538 26.3268C191.646 26.535 191.805 26.6808 192.013 26.7641C192.221 26.839 192.483 26.8765 192.8 26.8765C193.025 26.8765 193.225 26.8682 193.4 26.8515C193.583 26.8265 193.737 26.8015 193.862 26.7766L193.874 29.425C193.566 29.525 193.233 29.6041 192.875 29.6624C192.517 29.7207 192.121 29.7499 191.688 29.7499C190.897 29.7499 190.205 29.6208 189.614 29.3626C189.031 29.0961 188.581 28.6713 188.265 28.0883C187.948 27.5053 187.79 26.7391 187.79 25.7896V12.6472ZM199.359 18.9311V29.5H195.761V15.9828H199.146L199.359 18.9311ZM203.431 15.8953L203.369 19.2309C203.194 19.2059 202.982 19.1851 202.732 19.1684C202.49 19.1434 202.269 19.1309 202.07 19.1309C201.561 19.1309 201.12 19.1976 200.745 19.3308C200.379 19.4558 200.071 19.6432 199.821 19.893C199.579 20.1429 199.396 20.4469 199.271 20.805C199.155 21.1631 199.088 21.5712 199.071 22.0293L198.347 21.8044C198.347 20.9299 198.434 20.1262 198.609 19.3933C198.784 18.6521 199.038 18.0066 199.371 17.4569C199.713 16.9072 200.129 16.4825 200.62 16.1826C201.112 15.8828 201.674 15.7329 202.307 15.7329C202.507 15.7329 202.711 15.7496 202.919 15.7829C203.127 15.8079 203.298 15.8453 203.431 15.8953ZM204.181 22.8788V22.6164C204.181 21.6253 204.322 20.7134 204.606 19.8805C204.889 19.0393 205.301 18.3106 205.842 17.6943C206.384 17.078 207.05 16.5991 207.841 16.2576C208.632 15.9078 209.54 15.7329 210.565 15.7329C211.589 15.7329 212.501 15.9078 213.301 16.2576C214.1 16.5991 214.771 17.078 215.312 17.6943C215.862 18.3106 216.278 19.0393 216.561 19.8805C216.844 20.7134 216.986 21.6253 216.986 22.6164V22.8788C216.986 23.8616 216.844 24.7735 216.561 25.6147C216.278 26.4476 215.862 27.1763 215.312 27.801C214.771 28.4173 214.104 28.8962 213.313 29.2377C212.522 29.5791 211.614 29.7499 210.59 29.7499C209.565 29.7499 208.653 29.5791 207.854 29.2377C207.063 28.8962 206.392 28.4173 205.842 27.801C205.301 27.1763 204.889 26.4476 204.606 25.6147C204.322 24.7735 204.181 23.8616 204.181 22.8788ZM207.779 22.6164V22.8788C207.779 23.4451 207.829 23.974 207.929 24.4654C208.029 24.9568 208.187 25.3899 208.403 25.7646C208.628 26.1311 208.92 26.4184 209.278 26.6266C209.636 26.8349 210.073 26.939 210.59 26.939C211.089 26.939 211.518 26.8349 211.876 26.6266C212.235 26.4184 212.522 26.1311 212.738 25.7646C212.955 25.3899 213.113 24.9568 213.213 24.4654C213.321 23.974 213.376 23.4451 213.376 22.8788V22.6164C213.376 22.0668 213.321 21.5504 213.213 21.0673C213.113 20.576 212.951 20.1429 212.726 19.7681C212.509 19.385 212.222 19.0851 211.864 18.8686C211.506 18.6521 211.073 18.5438 210.565 18.5438C210.057 18.5438 209.624 18.6521 209.265 18.8686C208.916 19.0851 208.628 19.385 208.403 19.7681C208.187 20.1429 208.029 20.576 207.929 21.0673C207.829 21.5504 207.779 22.0668 207.779 22.6164ZM222.995 10.311V29.5H219.385V10.311H222.995Z" fill="#E1E1E6"/>
</svg>
